<svg version="1.1" xmlns="http://www.w3.org/2000/svg" xmlns:xlink="http://www.w3.org/1999/xlink" width="490.83631" height="163.00001" viewBox="0,0,490.83631,163.00001"><g transform="translate(9.88136,-134.75)"><g data-paper-data="{&quot;isPaintingLayer&quot;:true}" fill-rule="nonzero" stroke-linecap="butt" stroke-linejoin="miter" stroke-miterlimit="10" stroke-dasharray="" stroke-dashoffset="0" style="mix-blend-mode: normal"><path d="M-1.71771,293.75151v-92c0,0 36.77834,-19.51952 99.2977,-19.51952c17.42762,0 15.23154,20.89276 61.80963,20.53602c6.81649,0.07329 13.22629,-1.03836 19.26101,-3.00325c1.37243,0.4561 2.60971,1.02425 3.61167,1.79436c3.68556,2.8327 9.52044,8.37113 14.22051,9.54615c26.93189,6.73297 42.8734,-5.28029 70.63408,-5.21436c14.26851,0.03389 32.191,6.12094 48.64235,3.45547c3.4859,-0.56479 6.79982,-0.3565 8.42474,-0.3022c25.98127,0.86822 57.2495,3.6216 85.50785,1.92693c28.79303,-1.72673 50.82721,-6.82991 60.80594,-8.80199c2.87358,-0.5679 7.95719,-0.41761 7.95719,-0.41761v92z" fill="#e8c93c" stroke="#ae972d" stroke-width="5"/><path d="M254.8707,143.84603c7.05522,0.09299 36.50489,-9.59664 44.80072,5.82689c1.96589,3.65496 3.02149,8.40487 3.52788,13.6458c-0.14582,-0.00623 -0.29243,-0.00938 -0.43978,-0.00938c-0.6289,0 -1.24432,0.05734 -1.84126,0.16703l-1.82552,0.30236l-0.37612,0.16251h-0.41013l-2.68335,0.66667l-0.9778,0.51825l-1.08178,0.2389l-0.70204,0.34884l-1.39508,0.46214l-1.5714,0.1952l-3.23059,0.32105l-0.31713,0.11314l-0.33588,-0.0267l-3.20355,0.53061h-13.92559l-1.34167,0.33333h-1.00625l-0.67481,0.16765l-0.15931,0.01218l-0.05217,0.01728l-0.76797,-0.06106l-2.01251,0.33333l-4.75603,2.05499l-0.14609,0.39284c-6.78796,1.61287 -12.39061,8.3711 -14.98971,16.00324c-2.40862,0.07025 -4.66461,0.24093 -6.27082,0.59787c-10.14316,2.25404 -20.69187,5.93898 -31.26894,5.5c-12.1705,-0.50509 -16.60109,-11.10514 -28.77598,-11.49012c-6.31644,-0.19973 -14.01778,3.32903 -14.22422,3.14974c5.90883,-4.07011 12.80544,-5.28043 12.80544,-5.28043l35.73807,-0.18168c0,0 10.91277,-8.78497 15.61674,-10.77496c16.93158,-7.16282 23.17558,-24.30472 28.27464,-24.23751z" fill="#e8c93c" stroke="#ae972d" stroke-width="5"/><path d="" fill="#e8c93c" stroke="#ae972d" stroke-width="5"/><path d="" fill="#e8c93c" stroke="#ae972d" stroke-width="5"/><path d="M-9.88136,297.75001v-91l17,-6v97z" fill="#e8c93c" stroke="none" stroke-width="0"/><path d="M231.49363,223.625c0,0.20711 -0.11193,0.375 -0.25,0.375c-0.13807,0 -0.25,-0.16789 -0.25,-0.375c0,-0.20711 0.11193,-0.375 0.25,-0.375c0.13807,0 0.25,0.16789 0.25,0.375z" fill="#858585" stroke="none" stroke-width="0"/><path d="M288.61861,188.16099c0,0 0,-30.46345 0,-38.5c0,-3.6634 0,-8 0,-8h34.5v46.5z" fill="#e8c93c" stroke="#ae972d" stroke-width="5"/><path d="M274.61861,161.66099l-2.5,-13c0,0 10,-5 14,-5c4,0 12.5,0.5 12.5,0.5v17.5l-8.16289,3.3423c0,0 -6.56473,0.1577 -8.33711,0.1577c-3.91323,0 -7.5,-3.5 -7.5,-3.5z" fill="#e8c93c" stroke="none" stroke-width="0"/><path d="M239.61863,170.66099h15v15.99628c-1.51743,-0.01953 -4.35898,0.65366 -6.91402,0.62499c-4.0114,-0.04502 -8.049,-0.72141 -10.74965,-0.12127c-0.70099,0.15578 -1.40392,0.31839 -2.10867,0.486c1.49487,-7.62286 4.77234,-16.986 4.77234,-16.986z" fill="#e8c93c" stroke="#ae972d" stroke-width="5"/><path d="M225.11863,182.50982c0,0 5.37247,-9.10267 12.04933,-14.52043c3.69589,-2.99893 9.52544,-3.8284 10.95067,-3.8284c1.35883,0 14.48273,-13.43901 10.4646,1.16954c-0.15733,0.57199 0.38326,2.35773 0.38326,2.35773l-6.45376,1.09503c0,0 2.24913,4.16259 0.3559,4.16259c0,0 -0.0671,4.87492 0.31177,12.61261c-4.36481,-0.08151 -14.62818,-0.58577 -17.72544,0.10251c-4.29019,0.95337 -8.15293,0.91274 -12.55968,1.95777z" fill="#e8c93c" stroke="none" stroke-width="0"/><path d="M247.70497,166.75c0,0 0,-5.99587 0,-8.75c0,-3.79532 1.95468,-7 5.75,-7c8.59893,0 51.5,0 51.5,0l-5.75,20.25c0,0 -3.11243,-3.83952 -5.76234,-3.94764c-2.94353,-0.12011 -8.09168,-1.57272 -11.98072,-1.72713c-9.91418,-0.39361 -19.89393,0.77611 -25.25694,3.17477c-5.03063,2.25 -8.5,-2 -8.5,-2z" fill="#e8c93c" stroke="none" stroke-width="0"/><path d="M346.36863,151.25c0,-7.73199 6.26801,-14 14,-14c7.73199,0 14,6.26801 14,14c0,7.73199 -6.26801,14 -14,14c-7.73199,0 -14,-6.26801 -14,-14z" fill="#e8c93c" stroke="#ae972d" stroke-width="5"/></g></g></svg>