<svg version="1.1" xmlns="http://www.w3.org/2000/svg" xmlns:xlink="http://www.w3.org/1999/xlink" width="485.53222" height="172.81969" viewBox="0,0,485.53222,172.81969"><g transform="translate(1.89595,-54.05176)"><g data-paper-data="{&quot;isPaintingLayer&quot;:true}" fill="#7a7a7a" fill-rule="nonzero" stroke-linejoin="miter" stroke-miterlimit="10" stroke-dasharray="" stroke-dashoffset="0" style="mix-blend-mode: normal"><path d="" stroke="none" stroke-width="0" stroke-linecap="butt"/><path d="" stroke="none" stroke-width="0" stroke-linecap="butt"/><path d="" stroke="none" stroke-width="0" stroke-linecap="butt"/><path d="" stroke="none" stroke-width="0" stroke-linecap="butt"/><path d="" stroke="none" stroke-width="0" stroke-linecap="butt"/><path d="" stroke="none" stroke-width="0" stroke-linecap="butt"/><path d="M-1.89594,226.87145l0.17328,-63.84218l276.32674,-0.49116v64.33333z" stroke="none" stroke-width="0" stroke-linecap="butt"/><path d="M11.75532,164.86688c0,0 20.80521,-10.78067 27.22777,-18.49884c7.13764,-8.5775 12.00621,-31.31629 12.00621,-31.31629c0,0 1.73793,-28.57935 11.9481,-28c12.95924,-0.33025 11.66666,28 11.66666,28v52z" stroke="#7a7a7a" stroke-width="5" stroke-linecap="round"/><path d="M35.60406,74.05176v-20h71.66666v20z" stroke="#7a7a7a" stroke-width="0" stroke-linecap="butt"/><path d="M91.70761,152.80176c-3.14,-3.05686 -2.43859,-8.55176 -2.43859,-8.55176v-90.19824h172.00168v101h-85.71109l-0.57425,-44.80176l-49.75733,0.03016l-0.42572,44.7716h-24.43771c0,0 -5.51698,0.80686 -8.65698,-2.25z" stroke="#7a7a7a" stroke-width="0" stroke-linecap="butt"/><path d="M76.87072,163.11843v-18.09091c0,0 -0.03374,6.97279 5.13375,13.47756c3.50072,4.40666 14.76625,4.61335 14.76625,4.61335z" stroke="none" stroke-width="0" stroke-linecap="butt"/><path d="M274.12281,222.4167l-0.11015,-13.41006l209.62362,0.07672v13.33334z" stroke="none" stroke-width="0" stroke-linecap="butt"/><path d="M273.53481,221.56417v-59c0,0 7.24796,0.49078 12.27915,10.84554c2.90651,5.98193 1.95067,18.82172 6.78307,27.41105c3.48268,6.19027 12.16285,8.19871 12.16285,8.19871l-8.89174,12.54471z" stroke="none" stroke-width="0" stroke-linecap="butt"/><path d="M133.60405,178.8975v-40.66666h32.66667v40.66666z" stroke="none" stroke-width="0" stroke-linecap="butt"/></g></g></svg>