<svg version="1.1" xmlns="http://www.w3.org/2000/svg" xmlns:xlink="http://www.w3.org/1999/xlink" width="13.40343" height="9.84133" viewBox="0,0,13.40343,9.84133"><g transform="translate(-233.29828,-175.07934)"><g data-paper-data="{&quot;isPaintingLayer&quot;:true}" fill-rule="nonzero" stroke="none" stroke-linecap="butt" stroke-linejoin="miter" stroke-miterlimit="10" stroke-dasharray="" stroke-dashoffset="0" style="mix-blend-mode: normal"><path d="M237.48794,180.61376c0,-1.10369 0.23633,-2.17089 0.9301,-2.92273c0.77083,-0.83533 2.06239,-1.29602 3.28865,-1.29602c2.32995,0 4.21875,1.8888 4.21875,4.21875c0,2.32995 -1.8888,4.21875 -4.21875,4.21875c-2.32995,0 -4.21875,-1.8888 -4.21875,-4.21875z" fill="#4e4eff" stroke-width="0"/><path d="M240.23794,179.02001c0,-0.18793 0.14126,-0.23459 0.21141,-0.24617c0.05391,-0.04633 0.11132,-0.0895 0.17166,-0.12949c0.7602,-1.72511 3.54774,-1.62404 3.54774,0.55811c-0.53517,0.97893 -1.9629,-0.93415 -3.14925,-0.23852c-0.01524,0.05403 -0.02747,0.10992 -0.03642,0.16761c0,0 -0.04903,0.24515 -0.29417,0.19612c-0.06727,-0.01345 -0.11239,-0.04168 -0.14245,-0.07556l-0.05852,0.01791c0,0 -0.25,0 -0.25,-0.25z" fill="#7171ff" stroke-width="0.5"/><path d="M245.92544,180.99187c0,1.75583 -2.30526,3.16524 -4.0388,1.68536c-1.59039,-1.03683 -0.07246,-5.12086 1.82703,-2.86532c0.0967,0.33622 0.18898,0.57982 0.281,0.74928c0.10014,0.10398 0.50799,0.70595 0.59309,0.80483c0.28011,0.11463 0.2813,-0.74736 0.73286,-1.12297l0.04852,-0.16873c0.02526,-0.09678 0.12483,-0.16901 0.24381,-0.16901c0.13807,0 0.25,0.09729 0.25,0.21731c0,0.01657 -0.00213,0.0327 -0.00617,0.0482c0.04002,0.15856 0.06475,0.42177 0.06867,0.82105z" fill="#ffffff" stroke-width="0.5"/><path d="M242.04984,182.75728c1.49426,0.57057 2.02062,-1.19984 3.49877,-0.76138c1.67989,1.83432 -2.48197,2.8991 -3.81068,2.8991c-3.8424,0 -0.68938,-4.08453 0.2861,-2.23768c0,0 0.01925,0.04204 0.0258,0.09996z" fill="#fbb38f" stroke-width="0.5"/><path d="M244.59166,182.94246c-0.05632,-0.1993 0.36924,-0.49404 0.95054,-0.65832c0.5813,-0.16428 1.09819,-0.13589 1.15451,0.06341c0.05632,0.1993 -0.36924,0.49404 -0.95054,0.65832c-0.5813,0.16428 -1.09819,0.13589 -1.15451,-0.06341z" fill="#000000" stroke-width="0"/><path d="M239.30044,177.45751c0,0 -1.02146,0.79118 -1.54857,0.68247c-0.4594,-0.09474 -0.16043,-0.66985 -0.44772,-0.9403c-0.20663,-0.1945 -1.08072,-0.36075 -1.28249,-0.39269c-0.72268,-0.1144 -1.40872,-0.1999 -1.40872,-0.34948c0,-0.13352 0.67275,-0.46525 1.38763,-0.71364c0.81037,-0.28157 1.67487,-0.47386 1.67487,-0.47386c0,0 2.30224,-0.38122 3.3689,-0.06558c0.96478,0.28549 2.7561,1.87808 2.7561,1.87808h-0.8125z" fill="#4e4eff" stroke-width="0"/><path d="M233.55044,180.58251c0,0 4.08105,-3.0625 4.8125,-3.0625c0.12049,0 0.10613,0.40838 -0.1063,0.82353c-0.10673,0.20856 -0.27863,0.45039 -0.35118,0.70624c-0.21724,0.76612 -0.23002,1.53272 -0.23002,1.53272v0.9375c0,0 -0.54558,0.0576 -0.91653,-0.02818c-0.42909,-0.09923 -0.73014,-0.34807 -1.38076,-0.42064c-0.70236,-0.07835 -1.65565,0.02769 -1.92815,-0.03423c-0.39245,-0.08919 0.10044,-0.45444 0.10044,-0.45444z" fill="#4e4eff" stroke-width="0"/><path d="M235.13815,183.31984c0.49199,-0.24407 0.89602,-0.11448 1.33137,-0.44928c1.35664,-1.04333 -1.02488,-1.6926 -0.29427,-1.68865c0.43946,0.00238 1.4377,0.33811 1.4377,0.33811l1.9375,2.375c0,0 0.03808,0.59564 -0.76427,0.82507c-1.42675,0.40796 -2.31718,0.08066 -3.79889,-0.00058c-0.22803,-0.0125 -0.69955,-0.15924 -0.73774,-0.37812c-0.04332,-0.24825 0.88861,-1.02155 0.88861,-1.02155z" fill="#4e4eff" stroke-width="0"/><path d="M246.55044,182.42626c0,0.12081 -0.08394,0.21875 -0.1875,0.21875c-0.10356,0 -0.1875,-0.09794 -0.1875,-0.21875c0,-0.12081 0.08394,-0.21875 0.1875,-0.21875c0.10356,0 0.1875,0.09794 0.1875,0.21875z" fill="#ffffff" stroke-width="0"/><g data-paper-data="{&quot;index&quot;:null}" stroke-width="0"><path d="M243.46171,181.49286c0.01157,-0.53341 0.17961,-0.96282 0.37533,-0.95911c0.19572,0.00371 0.34499,0.43913 0.33342,0.97254c-0.01157,0.53341 -0.17961,0.96282 -0.37533,0.95911c-0.19572,-0.00371 -0.34499,-0.43913 -0.33342,-0.97254z" fill="#000000"/><path d="M244.1019,180.77385c0.02471,0.0885 -0.04485,0.18208 -0.15534,0.20901c-0.11049,0.02693 -0.22009,-0.02298 -0.2448,-0.11148c-0.02471,-0.0885 0.04485,-0.18207 0.15534,-0.209c0.11049,-0.02693 0.22009,0.02297 0.2448,0.11147z" fill="#ffffff"/></g><g data-paper-data="{&quot;index&quot;:null}" stroke-width="0"><path d="M245.2825,181.39976c0.01045,-0.48164 0.16218,-0.86936 0.3389,-0.86601c0.17672,0.00335 0.3115,0.3965 0.30105,0.87814c-0.01045,0.48164 -0.16217,0.86936 -0.33889,0.86601c-0.17672,-0.00335 -0.3115,-0.3965 -0.30105,-0.87814z" fill="#000000"/><path d="M245.86056,180.75054c0.0223,0.07991 -0.04049,0.16441 -0.14026,0.18873c-0.09976,0.02432 -0.19873,-0.02075 -0.22104,-0.10066c-0.0223,-0.07991 0.04049,-0.1644 0.14026,-0.18871c0.09976,-0.02432 0.19873,0.02074 0.22104,0.10065z" fill="#ffffff"/></g></g></g></svg>