<svg version="1.1" xmlns="http://www.w3.org/2000/svg" xmlns:xlink="http://www.w3.org/1999/xlink" width="100.82581" height="139.24999" viewBox="0,0,100.82581,139.24999"><g transform="translate(-229.32256,-110.375)"><g data-paper-data="{&quot;isPaintingLayer&quot;:true}" fill-rule="nonzero" stroke-linecap="butt" stroke-linejoin="miter" stroke-miterlimit="10" stroke-dasharray="" stroke-dashoffset="0" style="mix-blend-mode: normal"><path d="M317.31989,183.375l0.67607,64.63959l-88.61475,0.36041c0,0 22.29739,-1.04738 38.35874,-6.87175c31.12153,-11.28569 33.06386,-33.18118 33.06386,-58.12825z" data-paper-data="{&quot;index&quot;:null}" fill="#00ff2d" stroke="#008218" stroke-width="2.5"/><path d="M300.77933,181.375c0,-14.79373 0.85067,-25.01075 -12.79636,-40.29359c-15.54406,-17.40727 -48.00152,-18.40968 -48.00152,-18.40968l0.02974,-11.04673h88.88192l-0.05268,12.55089l-10.97165,7.8767l-0.67607,49.32241z" data-paper-data="{&quot;index&quot;:null}" fill="#7a7a7a" stroke="#515151" stroke-width="2.5"/><path d="M236.62667,121.54676v-8.71018h4.74095v8.71018z" fill="#7a7a7a" stroke="none" stroke-width="0"/><path d="M302.07109,182.55675v-7.25859h13.83197v7.25859z" fill="#7a7a7a" stroke="none" stroke-width="0"/><path d="M301.96196,190.09452v-7.53777h14.15934v7.53777z" fill="#00ff2d" stroke="none" stroke-width="0"/></g></g></svg>