<svg version="1.1" xmlns="http://www.w3.org/2000/svg" xmlns:xlink="http://www.w3.org/1999/xlink" width="503.00003" height="204.16668" viewBox="0,0,503.00003,204.16668"><g transform="translate(9.88137,-96.58335)"><g data-paper-data="{&quot;isPaintingLayer&quot;:true}" fill-rule="nonzero" stroke-linecap="butt" stroke-linejoin="miter" stroke-miterlimit="10" stroke-dasharray="" stroke-dashoffset="0" style="mix-blend-mode: normal"><path d="M204.70198,198.41844v-3.47223h13.33333v3.47223z" fill="#e8c93c" stroke="#ae972d" stroke-width="5"/><path d="M196.78531,190.0851v-3.47223h13.33333v3.47223z" fill="#e8c93c" stroke="#ae972d" stroke-width="5"/><path d="M-1.21772,293.75155v-92h55.83635c0,0 4.18599,-5.71476 11,-5c4.76665,0.5 10.5,5 10.5,5c0,0 157.15219,0 236.58334,0c4.73753,0 1.53192,-0.66667 5.66666,-0.66667c2.62612,0 3.02445,-5.14112 3.84624,-3.55782c1.094,2.10774 -0.57635,-27.09146 2.76484,-25.48763c1.7644,0.84694 1.28505,17.57662 2.44355,22.13592c0.7971,3.13699 8.72062,14.52666 11.26727,16.18213c9.12728,5.93328 22.97315,3.70075 36.92809,3.89407c46.94143,0.65029 37.83312,-12.5 55.83334,-12.5c28.65375,0 50.00298,0 50.00298,0c0,0 0,8.84501 0,16.24851c0,5.36899 0,15.67671 0,27c0,22.39033 0,48.75149 0,48.75149z" fill="#e8c93c" stroke="#ae972d" stroke-width="5"/><path d="" fill="#e8c93c" stroke="#ae972d" stroke-width="5"/><path d="" fill="#e8c93c" stroke="#ae972d" stroke-width="5"/><path d="M-9.88137,293.25004l5.5,-89h11.5v89z" fill="#e8c93c" stroke="none" stroke-width="0"/><path d="M476.11867,300.75004v-95c0,0 4.45916,-2 7,-2c3.03689,0 10,0 10,0v97z" fill="#e8c93c" stroke="none" stroke-width="0"/><path d="M231.49366,223.62504c0,0.20711 -0.11193,0.375 -0.25,0.375c-0.13807,0 -0.25,-0.16789 -0.25,-0.375c0,-0.20711 0.11193,-0.375 0.25,-0.375c0.13807,0 0.25,0.16789 0.25,0.375z" fill="#858585" stroke="none" stroke-width="0"/><g stroke="#ae972d" stroke-width="0.5"><path d="M98.76461,199.41671v-5.33392h4.68739v5.33392z" fill="#e8c93c"/><path d="M98.75384,194.0289v-1.42777h1.14221v1.42777z" fill="#e8c93c"/><path d="M100.55875,194.00195v-1.42777h1.14222v1.42777z" fill="#e8c93c"/><path d="M102.30978,194.00195v-1.42777h1.14222v1.42777z" fill="#e8c93c"/><path d="M99.73442,199.41671c0,0 -0.27039,-3.07105 1.32001,-3.07105c1.58984,0 1.23919,3.07105 1.23919,3.07105z" fill="#000000"/><path d="M99.43809,195.72606v-1.13144h1.13144v1.13144z" fill="#000000"/><path d="M101.70097,195.72606v-1.13144h1.13143v1.13144z" fill="#000000"/></g><g stroke="#ae972d" stroke-width="0.5"><path d="M112.9351,199.58336v-7.22613h6.35023v7.22613z" fill="#e8c93c"/><path d="M112.9205,192.28425v-1.93427h1.54741v1.93427z" fill="#e8c93c"/><path d="M115.36571,192.24774v-1.93426h1.54741v1.93426z" fill="#e8c93c"/><path d="M117.73791,192.24774v-1.93426h1.54741v1.93426z" fill="#e8c93c"/><path d="M114.24894,199.58336c0,0 -0.3663,-4.1605 1.78829,-4.1605c2.15383,0 1.67879,4.1605 1.67879,4.1605z" fill="#000000"/><path d="M113.84749,194.58346v-1.53282h1.53282v1.53282z" fill="#000000"/><path d="M116.91312,194.58346v-1.53282h1.53281v1.53282z" fill="#000000"/></g><g stroke="#ae972d" stroke-width="0.5"><path d="M126.77187,199.08336v-8.92911h7.84679v8.92911z" fill="#e8c93c"/><path d="M126.75383,190.06407v-2.39012h1.91209v2.39012z" fill="#e8c93c"/><path d="M129.77531,190.01895v-2.39011h1.91209v2.39011z" fill="#e8c93c"/><path d="M132.70657,190.01895v-2.39011h1.91209v2.39011z" fill="#e8c93c"/><path d="M128.39533,199.08336c0,0 -0.45263,-5.14101 2.20974,-5.14101c2.66143,0 2.07443,5.14101 2.07443,5.14101z" fill="#000000"/><path d="M127.89929,192.90515v-1.89405h1.89405v1.89405z" fill="#000000"/><path d="M131.6874,192.90515v-1.89405h1.89405v1.89405z" fill="#000000"/></g><g stroke="#ae972d" stroke-width="0.5"><path d="M142.8656,199.08336v-8.9291h7.84679v8.9291z" fill="#e8c93c"/><path d="M142.84759,190.06406v-2.39012h1.91209v2.39012z" fill="#e8c93c"/><path d="M145.86906,190.01895v-2.39011h1.91209v2.39011z" fill="#e8c93c"/><path d="M148.80032,190.01895v-2.39011h1.9121v2.39011z" fill="#e8c93c"/><path d="M144.48908,199.08336c0,0 -0.45263,-5.141 2.20974,-5.141c2.66143,0 2.07443,5.141 2.07443,5.141z" fill="#000000"/><path d="M143.99302,192.90515v-1.89406h1.89406v1.89406z" fill="#000000"/><path d="M147.78115,192.90515v-1.89406h1.89405v1.89406z" fill="#000000"/></g><g stroke="#ae972d" stroke-width="0.5"><path d="M142.8656,187.52086v-8.9291h7.84679v8.9291z" fill="#e8c93c"/><path d="M142.84759,178.50157v-2.39012h1.91209v2.39012z" fill="#e8c93c"/><path d="M145.86906,178.45647v-2.39011h1.91209v2.39011z" fill="#e8c93c"/><path d="M148.80032,178.45647v-2.39011h1.9121v2.39011z" fill="#e8c93c"/><path d="M144.48908,187.52086c0,0 -0.45263,-5.141 2.20974,-5.141c2.66143,0 2.07443,5.141 2.07443,5.141z" fill="#000000"/><path d="M143.99302,181.34265v-1.89406h1.89405v1.89406z" fill="#000000"/><path d="M147.78115,181.34265v-1.89406h1.89405v1.89406z" fill="#000000"/></g><path d="M157.952,201.91671v-35.88542h44.21875v35.88542z" fill="#e8c93c" stroke="#ae972d" stroke-width="5"/><path d="M160.53533,246.26565v-48.75h38.75v48.75z" fill="#e8c93c" stroke="none" stroke-width="0"/><g stroke="#ae972d" stroke-width="0.5"><path d="M58.86313,197.33337v-13.55781h11.91443v13.55781z" fill="#e8c93c"/><path d="M58.83574,183.63861v-3.62912h2.90329v3.62912z" fill="#e8c93c"/><path d="M63.42348,183.57013v-3.6291h2.90329v3.6291z" fill="#e8c93c"/><path d="M67.87426,183.57013v-3.6291h2.90329v3.6291z" fill="#e8c93c"/><path d="M61.32818,197.33337c0,0 -0.68727,-7.80602 3.35522,-7.80602c4.04106,0 3.14978,7.80602 3.14978,7.80602z" fill="#000000"/><path d="M60.57497,187.95246v-2.8759h2.8759v2.8759z" fill="#000000"/><path d="M66.32676,187.95246v-2.8759h2.87589v2.8759z" fill="#000000"/></g><path d="M256.95198,202.48212v-49.73209l23.92205,-0.31004l0.24461,-17.4087c0,0 18.85022,0 27.16668,0c5.3591,0 8.27666,-0.66043 13.55208,5.66667c4.06785,4.87879 4.33333,10.78466 4.33333,16.38539c0,11.80944 0,45.39877 0,45.39877z" fill="#e8c93c" stroke="#ae972d" stroke-width="5"/><path d="M259.66252,259.26563v-67.87659h64.1228l7.86866,14.33333l-4.33333,53.54326z" fill="#e8c93c" stroke="none" stroke-width="0"/><path d="M232.11866,181.4167v-81.66667h10.66667l-6.16667,81.66667z" fill="#e8c93c" stroke="#ae972d" stroke-width="5"/><path d="M232.11866,118.08336v-19h111.33333v19z" fill="#e8c93c" stroke="#ae972d" stroke-width="5"/><path d="M339.78532,174.08336v-75h17.33333v75z" fill="#e8c93c" stroke="#ae972d" stroke-width="5"/><path d="M234.45199,142.08336v-30.66667h6l-3.33333,31z" fill="#e8c93c" stroke="none" stroke-width="0"/><path d="M330.11866,115.75003v-14.33333h15.66667v14.33333z" fill="#e8c93c" stroke="none" stroke-width="0"/></g></g></svg>