<svg version="1.1" xmlns="http://www.w3.org/2000/svg" xmlns:xlink="http://www.w3.org/1999/xlink" width="295.52511" height="64.28625" viewBox="0,0,295.52511,64.28625"><g transform="translate(-188.27892,-162.66667)"><g data-paper-data="{&quot;isPaintingLayer&quot;:true}" fill="#7a7a7a" fill-rule="nonzero" stroke="none" stroke-width="0" stroke-linecap="butt" stroke-linejoin="miter" stroke-miterlimit="10" stroke-dasharray="" stroke-dashoffset="0" style="mix-blend-mode: normal"><path d="M227.24847,222.27778v-13.16667h255.38889v13.16667z"/><path d="M188.27892,221.99171v-42.11664h48.44841v42.11664z"/><path d="M236.23535,217.5v-37.5c0,0 3.35616,0.11485 5.72283,4.19761c4.10572,7.08279 3.47434,10.31601 8.33698,16.69787c5.14559,6.75321 19.44019,9.60452 19.44019,9.60452l-1.6962,7z"/><path d="M320.80403,215.66667v-37.33333l99.66667,30.66667v6.66667z"/><path d="M290.80403,209.66667c0,0 5.76144,4.23072 22.0833,-8.69619c8.75612,-6.93484 8.24835,-22.63715 8.24835,-22.63715v31.33333z"/><path d="M444.07811,226.95292l-11.52969,-17.48493c0,0 4.87027,1.62213 13.33847,-5.56701c5.91197,-5.01901 4.97638,-21.8539 4.97638,-21.8539l11.19635,32.81827z"/><path d="M450.13736,221.66667v-47.33333h33.66667v47.33333z"/><path d="M450.13736,174c0,-6.25923 5.07411,-11.33333 11.33333,-11.33333c6.25923,0 11.33333,5.07411 11.33333,11.33333c0,6.25923 -5.07411,11.33333 -11.33333,11.33333c-6.25923,0 -11.33333,-5.07411 -11.33333,-11.33333z"/><path d="M461.13736,180v-17.33333h22.66667v17.33333z"/></g></g></svg>