<svg version="1.1" xmlns="http://www.w3.org/2000/svg" xmlns:xlink="http://www.w3.org/1999/xlink" width="482.72398" height="170.50137" viewBox="0,0,482.72398,170.50137"><g transform="translate(1.70632,-61.49863)"><g data-paper-data="{&quot;isPaintingLayer&quot;:true}" fill-rule="nonzero" stroke-linecap="butt" stroke-linejoin="miter" stroke-miterlimit="10" stroke-dasharray="" stroke-dashoffset="0" style="mix-blend-mode: normal"><g stroke="none"><path d="M51.79481,67.35722l2.88994,-5.85858l100.52476,62.28827l-2.88994,5.85858z" fill="#00ce22" stroke-width="NaN"/><path d="M46.15683,79.66098l6.7272,-14.50607l100.48641,62.36017l-6.7272,14.50607z" fill="#e3b800" stroke-width="0"/></g><g stroke="none"><path d="M164.71489,124.30435l-6.40178,-5.02949l28.52268,-29.03449l6.40179,5.02949z" fill="#00ce22" stroke-width="NaN"/><path d="M178.02953,134.5958l-15.722,-12.18389l28.60212,-28.97095l15.722,12.18389z" fill="#e3b800" stroke-width="0"/></g><g stroke="none"><path d="M225.1009,189.7634l-0.05697,-8.00302l32.49708,-0.23134l0.05697,8.00302z" fill="#00ce22" stroke-width="NaN"/><path d="M225.32533,221.29041l-0.24515,-34.4372l32.49708,-0.23134l0.24515,34.4372z" fill="#e3b800" stroke-width="0"/></g><g stroke="none"><path d="M161.8509,168.2634l-0.05697,-8.00301l32.49708,-0.23134l0.05697,8.00301z" fill="#00ce22" stroke-width="NaN"/><path d="M162.07533,199.79041l-0.24515,-34.4372l32.49708,-0.23134l0.24515,34.4372z" fill="#e3b800" stroke-width="0"/></g><g stroke="none"><path d="M194.1009,164.5134l-0.05697,-8.00302l32.49708,-0.23134l0.05697,8.00302z" fill="#00ce22" stroke-width="NaN"/><path d="M194.32533,196.04041l-0.24515,-34.4372l32.49707,-0.23134l0.24515,34.4372z" fill="#e3b800" stroke-width="0"/></g><g stroke="none"><path d="M113.95153,203.39505l-4.10436,-6.87065l27.89897,-16.66616l4.10436,6.87065z" fill="#00ce22" stroke-width="NaN"/><path d="M130.12019,230.46121l-17.66115,-29.56458l27.89897,-16.66616l17.66115,29.56458z" fill="#e3b800" stroke-width="0"/></g><g data-paper-data="{&quot;index&quot;:null}" stroke="none"><path d="M133.76583,186.97889l4.10435,-6.87064l27.89898,16.66616l-4.10435,6.87064z" fill="#00ce22" stroke-width="NaN"/><path d="M117.59718,214.04505l17.66115,-29.56458l27.89897,16.66616l-17.66115,29.56458z" fill="#e3b800" stroke-width="0"/></g><g stroke="none"><path d="M56.8317,173.20431l-3.72009,-7.08607l16.31944,-8.56748l3.72009,7.08607z" fill="#00ce22" stroke-width="NaN"/><path d="M71.4866,201.11913l-16.00766,-30.49156l16.31942,-8.56748l16.00766,30.49157z" fill="#e3b800" stroke-width="0"/></g><g stroke="none"><path d="M66.67781,197.20784l-6.43332,-4.76065l10.96394,-14.81613l6.43332,4.76065z" fill="#00ce22" stroke-width="NaN"/><path d="M92.0212,215.96195l-27.68276,-20.48525l10.96393,-14.81612l27.68276,20.48525z" fill="#e3b800" stroke-width="0"/></g><g stroke="none"><path d="M46.93422,165.14743v-8.00322h32.4979v8.00322z" fill="#00ce22" stroke-width="NaN"/><path d="M46.93422,196.67524v-34.43807h32.4979v34.43807z" fill="#e3b800" stroke-width="0"/></g><g stroke="none"><path d="M28.98762,178.97116v-8.00321h18.43165v8.00321z" fill="#00ce22" stroke-width="NaN"/><path d="M28.98762,210.49898v-34.43807h18.43164v34.43807z" fill="#e3b800" stroke-width="0"/></g><path d="M-0.70632,231v-34h480.67326v34z" fill="#e3b800" stroke="#e3b800" stroke-width="2"/><path d="M-1.68123,203v-8h482.69889v8z" fill="#00ce22" stroke="none" stroke-width="0"/><path d="M-0.43123,196v-43.75h29.5c0,0 18.75,3.33603 18.75,5.25c0,4.12515 -0.21934,43.60166 -0.21934,43.60166l-18.53066,-5.10166z" fill="#00ce22" stroke="none" stroke-width="0"/><g stroke="none"><path d="M323.1009,154.7634l-0.05697,-8.00302l32.49708,-0.23134l0.05697,8.00302z" fill="#00ce22" stroke-width="NaN"/><path d="M323.32533,186.29041l-0.24515,-34.4372l32.49708,-0.23134l0.24515,34.4372z" fill="#e3b800" stroke-width="0"/></g><g stroke="none"><path d="M297.1009,177.7634l-0.05697,-8.00302l32.49708,-0.23134l0.05697,8.00302z" fill="#00ce22" stroke-width="NaN"/><path d="M297.32533,209.29041l-0.24515,-34.4372l32.49708,-0.23134l0.24515,34.4372z" fill="#e3b800" stroke-width="0"/></g><g stroke="none"><path d="M350.0368,175.9699l4.11217,-6.86598l27.88001,16.69787l-4.11217,6.86598z" fill="#00ce22" stroke-width="NaN"/><path d="M333.83737,203.01766l17.69475,-29.54449l27.88001,16.69788l-17.69476,29.54448z" fill="#e3b800" stroke-width="0"/></g><g stroke="none"><path d="M266.1009,138.2634l-0.05697,-8.00302l32.49708,-0.23134l0.05697,8.00302z" fill="#00ce22" stroke-width="NaN"/><path d="M266.32533,154.79041l-0.24515,-19.53729l32.49708,-0.13125l0.24515,19.5373z" fill="#e3b800" stroke-width="0"/></g><g stroke="none"><path d="M229.6009,113.2634l-0.05697,-8.00302l32.49708,-0.23134l0.05697,8.00302z" fill="#00ce22" stroke-width="NaN"/><path d="M229.82533,129.79041l-0.24515,-19.5373l32.49708,-0.13124l0.24515,19.5373z" fill="#e3b800" stroke-width="0"/></g><g stroke="none"><path d="M136.1009,122.7634l-0.05697,-8.00302l32.49708,-0.23134l0.05697,8.00302z" fill="#00ce22" stroke-width="NaN"/><path d="M136.32533,139.29041l-0.24515,-19.5373l32.49708,-0.13124l0.24515,19.5373z" fill="#e3b800" stroke-width="0"/></g><g stroke="none"><path d="M187.6009,98.2634l-0.05697,-8.00302l32.49708,-0.23134l0.05697,8.00302z" fill="#00ce22" stroke-width="NaN"/><path d="M187.82533,114.79041l-0.24515,-19.53729l32.49708,-0.13124l0.24515,19.5373z" fill="#e3b800" stroke-width="0"/></g></g></g></svg>