<svg version="1.1" xmlns="http://www.w3.org/2000/svg" xmlns:xlink="http://www.w3.org/1999/xlink" width="327" height="124.47096" viewBox="0,0,327,124.47096"><g transform="translate(-154.01766,-107.52904)"><g data-paper-data="{&quot;isPaintingLayer&quot;:true}" fill-rule="nonzero" stroke-linecap="butt" stroke-linejoin="miter" stroke-miterlimit="10" stroke-dasharray="" stroke-dashoffset="0" style="mix-blend-mode: normal"><g stroke-width="0"><path d="M226.41191,196.57157v-23.69627h11.31831v23.69627z" fill="#e3b800" stroke="#e3b800"/><path d="M226.16937,175.13209v-4.13745h11.80338v4.13745z" fill="#00ce22" stroke="none"/></g><g stroke-width="0"><path d="M259.19608,196.57157v-24.37034h15.5043v24.37034z" fill="#e3b800" stroke="#e3b800"/><path d="M258.86384,174.52222v-4.25514h16.16877v4.25514z" fill="#00ce22" stroke="none"/></g><path d="M167.11865,231v-34h312.84829v34z" fill="#e3b800" stroke="#e3b800" stroke-width="2"/><path d="M154.01766,203v-8h327v8z" fill="#00ce22" stroke="none" stroke-width="0"/><path d="M274.70487,195.14425v-16.60471c0,0 4.67961,8.89501 7.95941,11.84971c2.78165,2.50593 10.47224,4.755 10.47224,4.755z" fill="#00ce22" stroke="none" stroke-width="0"/><path d="M208.01143,194.97759c0,0 7.69059,-2.18134 10.47224,-4.61182c3.27979,-2.86573 7.95941,-11.4929 7.95941,-11.4929v16.10471z" data-paper-data="{&quot;index&quot;:null}" fill="#00ce22" stroke="none" stroke-width="0"/><g><path d="M227.26018,207.24252v-21h46.66667v21z" fill="#e3b800" stroke="#e3b800" stroke-width="2"/><path d="M226.26018,188.24252v-3.66667h48.66667v3.66667z" fill="#00ce22" stroke="none" stroke-width="0"/></g><path d="M448.20487,195.64425c0,0 7.69059,-2.24907 10.47224,-4.755c3.2798,-2.9547 7.95941,-11.84971 7.95941,-11.84971v16.60471z" data-paper-data="{&quot;index&quot;:null}" fill="#00ce22" stroke="none" stroke-width="0"/><path d="M466.51766,197.5v-31.25h14v31.25z" fill="#00ce22" stroke="none" stroke-width="0"/><path d="M466.51766,167.5c0,0 -0.69971,-6.88598 4,-11.25c4.69971,-4.36402 10.25,-4 10.25,-4l-0.25,15.25z" fill="#00ce22" stroke="none" stroke-width="0"/><g stroke-width="0"><path d="M290.91191,165.82157v-23.69627h11.31831v23.69627z" fill="#e3b800" stroke="#e3b800"/><path d="M290.66937,144.38209v-4.13745h11.80338v4.13745z" fill="#00ce22" stroke="none"/></g><g stroke-width="0"><path d="M307.23383,163.32157v-23.69627h14.67447v23.69627z" fill="#e3b800" stroke="#e3b800"/><path d="M306.91937,141.88209v-4.13745h15.30338v4.13745z" fill="#00ce22" stroke="none"/></g><g stroke-width="0"><path d="M329.07858,135.57157v-23.69627h11.31831v23.69627z" fill="#e3b800" stroke="#e3b800"/><path d="M328.83604,114.13209v-4.13745h11.80338v4.13745z" fill="#00ce22" stroke="none"/></g><g stroke="none"><path d="M342.23734,115.7634l-0.1934,-8.00302l110.32317,-0.23134l0.1934,8.00302z" fill="#00ce22" stroke-width="NaN"/><path d="M342.99925,132.29041l-0.83225,-19.5373l110.32317,-0.13124l0.83225,19.5373z" fill="#e3b800" stroke-width="0"/></g><g stroke-width="0"><path d="M315.87767,170.32157v-23.69627h21.3868v23.69627z" fill="#e3b800" stroke="#e3b800"/><path d="M315.41937,148.88209v-4.13745h22.30338v4.13745z" fill="#00ce22" stroke="none"/></g><g stroke-width="0"><path d="M173.81263,154.82157v-9.69627h100.01694v9.69627z" fill="#e3b800" stroke="#e3b800"/><path d="M171.66937,147.38209v-4.13745h104.30338v4.13745z" fill="#00ce22" stroke="none"/></g></g></g></svg>