<svg version="1.1" xmlns="http://www.w3.org/2000/svg" xmlns:xlink="http://www.w3.org/1999/xlink" width="487.41667" height="209.91669" viewBox="0,0,487.41667,209.91669"><g transform="translate(2.86264,-13)"><g data-paper-data="{&quot;isPaintingLayer&quot;:true}" fill-rule="nonzero" stroke="none" stroke-width="0" stroke-linecap="butt" stroke-linejoin="miter" stroke-miterlimit="10" stroke-dasharray="" stroke-dashoffset="0" style="mix-blend-mode: normal"><path d="M-1.08486,222.2778v-13.16667h482.38889v13.16667z" fill="#7a7a7a"/><path d="M296.16513,180.00002l0.1983,-17.2899l85.61814,-0.01984c0.13433,0.10649 0.27613,0.20397 0.42449,0.29153c0.43333,0.75833 1.55424,0.84625 2.82854,0.5648c0.12763,0.2334 0.27936,0.45173 0.45183,0.65167c0.44479,0.51559 1.02757,0.90879 1.69098,1.12223c1.18374,0.72092 2.75571,1.63061 4.12012,2.44787c0.13444,0.74368 0.26871,1.4786 0.64552,2.10663c2.33721,3.89535 6.67649,8.16615 11.1042,9.2291c0.86698,0.20813 1.99317,0.54279 3.19265,0.82117l0.04271,0.07475z" fill="#7a7a7a"/><path d="M408.99681,171.00001c-0.82102,-0.8039 -1.66687,-1.50893 -2.53871,-2.17183c-0.18631,-0.18888 -0.33269,-0.3377 -0.41908,-0.42427l-0.29755,-1.0254c0,0 -1.22391,-2.44781 -3.67172,-2.11564c-0.61585,-0.75154 -1.23015,-1.63736 -1.87569,-2.5768l68.74252,-0.01593c-0.85964,0.50106 -1.7314,1.00182 -2.60845,1.58474c-7.61799,5.06316 -14.83081,8.94182 -23.91711,10.43955c-5.77689,0.95223 -11.08126,3.0781 -16.49301,-0.06227c-2.98683,-0.99561 -6.25796,-1.93672 -9.40578,-2.29851c-1.27839,-0.14693 -3.09223,0.20368 -4.6969,0.10832c-1.16326,-0.40007 -2.27582,-0.91058 -2.81851,-1.44196z" fill="#7a7a7a"/><path d="" fill="#7a7a7a"/><path d="M98.01365,180.00002l0.10356,-17.24325l69.29022,-0.01618l0.26366,17.25943z" fill="#7a7a7a"/><path d="M-2.86264,187.00001v-24.33333h47.88278l0.13121,24.21387z" fill="#7a7a7a"/><path d="M90.3457,162.66668l-0.11313,24.08333l-40.24637,0.07498l0.10865,-24.01595z" fill="#7a7a7a"/><path d="M98.0593,222.91669c0,0 0,-37.74795 0,-45.91667c0,-2.97331 0,-6.08333 0,-6.08333h69.61501l0.25,38l128.28452,0.07104l0.01187,-38.07104h96.58937c2.43977,3.58524 6.40176,7.21864 10.43719,8.18741c2.72442,0.65403 4.44543,1.95996 6.85103,1.92637c0.45309,0.39345 0.97466,0.80728 1.66293,1.22242c1.74317,1.05141 3.82614,1.39432 5.76231,2.0231c2.339,0.75961 4.45786,2.25092 6.71998,3.22636l2.81053,0.30321c0,0 0.26296,0 0.64962,-0.06963c1.27159,0.45809 2.5334,0.77414 3.79832,0.86453c12.04498,0.86067 20.15423,-5.07243 29.97387,-8.73754c5.58626,-2.08503 16.59826,-12.31783 21.05619,-14.2731c2.29245,-1.00548 0.27727,5.32688 0.27727,5.32688v52z" fill="#7a7a7a"/><path d="M71.86711,169.19213l-0.25013,-13.16624l18.86478,8.28201l-4.49987,4.41624z" data-paper-data="{&quot;index&quot;:null}" fill="#7a7a7a"/><path d="M57.61685,168.97414l-4.49987,-4.41624l18.86478,-8.28201l-0.25013,13.16624z" data-paper-data="{&quot;index&quot;:null}" fill="#7a7a7a"/><path d="M111.11685,167.72414l-4.49987,-4.41624l18.86478,-8.28201l-0.25013,13.16624z" data-paper-data="{&quot;index&quot;:null}" fill="#7a7a7a"/><path d="M125.11711,168.19213l-0.25013,-13.16623l18.86478,8.28201l-4.49987,4.41624z" data-paper-data="{&quot;index&quot;:null}" fill="#7a7a7a"/><path d="M163.9243,166.25001v-3.5h134v3.5z" fill="#573200"/><path d="M386.42431,107.75001h46v56h-31.49148c-1.97906,-2.79911 -4.14313,-6.44607 -7.5272,-8.39449c-0.70752,-0.40736 -1.35658,-0.69484 -1.95838,-0.8673c-0.54672,-0.71603 -1.39804,-1.27733 -1.98429,-1.97328l-2.88174,-1.7153c0,0 -0.05578,-0.03187 -0.15691,-0.07998z" fill="#7a7a7a"/><path d="" fill="#7a7a7a"/><path d="M319.67431,111.50002v-20.25h112.75v20.25z" fill="#7a7a7a"/><path d="M405.30403,163.5v-81.25h79.25v71.73958c-1.38117,-0.1325 -2.88475,0.0772 -4.02505,0.29811c-3.65199,0.7075 -6.48939,3.4157 -8.78776,6.60286c-1.36175,0.99611 -2.77729,1.74204 -4.21578,2.60945z" fill="#7a7a7a"/><path d="M318.88737,95.5v-82.5h165v82.5z" fill="#7a7a7a"/></g></g></svg>