<svg version="1.1" xmlns="http://www.w3.org/2000/svg" xmlns:xlink="http://www.w3.org/1999/xlink" width="503.00002" height="113.55784" viewBox="0,0,503.00002,113.55784"><g transform="translate(9.88137,-187.19218)"><g data-paper-data="{&quot;isPaintingLayer&quot;:true}" fill-rule="nonzero" stroke-linecap="butt" stroke-linejoin="miter" stroke-miterlimit="10" stroke-dasharray="" stroke-dashoffset="0" style="mix-blend-mode: normal"><path d="M290.31682,293.41819v-92h192.13814v92z" fill="#e8c93c" stroke="#ae972d" stroke-width="5"/><path d="M-2.21771,293.75153v-92h174.12012v92z" fill="#e8c93c" stroke="#ae972d" stroke-width="5"/><path d="" fill="#e8c93c" stroke="#ae972d" stroke-width="5"/><path d="" fill="#e8c93c" stroke="#ae972d" stroke-width="5"/><path d="M-9.88137,293.25002l5.16667,-89h11.83333v89z" fill="#e8c93c" stroke="none" stroke-width="0"/><path d="M476.11866,300.75002v-95c0,0 4.45916,-2 7,-2c3.03689,0 10,0 10,0v97z" fill="#e8c93c" stroke="none" stroke-width="0"/><path d="M231.49365,223.62502c0,0.20711 -0.11193,0.375 -0.25,0.375c-0.13807,0 -0.25,-0.16789 -0.25,-0.375c0,-0.20711 0.11193,-0.375 0.25,-0.375c0.13807,0 0.25,0.16789 0.25,0.375z" fill="#858585" stroke="none" stroke-width="0"/><path d="M188.67797,197.19218h20.88136v14h-20.88136z" fill="#e8c93c" stroke="#ae972d" stroke-width="5"/><path d="M224.17797,189.69218h20.88136v14h-20.88136z" fill="#e8c93c" stroke="#ae972d" stroke-width="5"/><path d="M255.17796,197.19218h20.88136v14h-20.88136z" fill="#e8c93c" stroke="#ae972d" stroke-width="5"/></g></g></svg>