<svg version="1.1" xmlns="http://www.w3.org/2000/svg" xmlns:xlink="http://www.w3.org/1999/xlink" width="486.02908" height="247.06317" viewBox="0,0,486.02908,247.06317"><g transform="translate(2.55837,20.06315)"><g data-paper-data="{&quot;isPaintingLayer&quot;:true}" fill-rule="nonzero" stroke-linejoin="miter" stroke-miterlimit="10" stroke-dasharray="" stroke-dashoffset="0" style="mix-blend-mode: normal"><path d="" fill="#7a7a7a" stroke="none" stroke-width="0" stroke-linecap="butt"/><path d="" fill="#7a7a7a" stroke="none" stroke-width="0" stroke-linecap="butt"/><path d="" fill="#7a7a7a" stroke="none" stroke-width="0" stroke-linecap="butt"/><path d="" fill="#7a7a7a" stroke="none" stroke-width="0" stroke-linecap="butt"/><path d="" fill="#7a7a7a" stroke="none" stroke-width="0" stroke-linecap="butt"/><path d="" fill="#7a7a7a" stroke="none" stroke-width="0" stroke-linecap="butt"/><path d="M1.9707,227.00002l-3.69575,-58.94218c0,0 8.53273,-5.72321 11.8913,-5.72089c30.01512,0.02079 473.30446,0.32973 473.30446,0.32973v64.33333z" fill="#7a7a7a" stroke="none" stroke-width="0" stroke-linecap="butt"/><path d="M34.17547,162.72256v-44h21v44z" fill="#7a7a7a" stroke="none" stroke-width="0" stroke-linecap="butt"/><path d="M11.12785,162.43685c0,0 9.78999,-0.38846 17.65401,-7.0828c5.20848,-4.43378 5.53647,-17.10768 5.53647,-17.10768v24.19048z" fill="#7a7a7a" stroke="none" stroke-width="0" stroke-linecap="butt"/><path d="M34.17547,118.93685c0,-5.95679 4.82893,-10.78571 10.78571,-10.78571c5.95679,0 10.78571,4.82893 10.78571,10.78571c0,5.95679 -4.82893,10.78571 -10.78571,10.78571c-5.95679,0 -10.78571,-4.82893 -10.78571,-10.78571z" fill="#7a7a7a" stroke="none" stroke-width="0" stroke-linecap="butt"/><path d="M44.10829,174.77018v-66.66667h108.66667v66.66667z" fill="#7a7a7a" stroke="none" stroke-width="0" stroke-linecap="butt"/><path d="M89.17548,109.0559v-35.5559c0,0 -0.36141,-3.70591 1.82995,-6.35957c1.75654,-2.12711 5.60287,-2.08453 5.60287,-2.08453h41.56718v44z" fill="#7a7a7a" stroke="none" stroke-width="0" stroke-linecap="butt"/><path d="M66.79452,108.77018c0,0 9.50855,-0.3617 17.1465,-6.5948c5.05876,-4.12831 5.37731,-15.929 5.37731,-15.929v22.5238z" fill="#7a7a7a" stroke="none" stroke-width="0" stroke-linecap="butt"/><path d="M-2.55837,97.43685v-84h72.33333v84z" fill="#7a7a7a" stroke="none" stroke-width="0" stroke-linecap="butt"/><path d="M-2.05837,-20.06315h155.66667v72.33334h-155.66667z" fill="#7a7a7a" stroke="none" stroke-width="0" stroke-linecap="butt"/><path d="M103.81991,109.0559v-44h36.90051c0,0 6.23569,0.76944 8.60287,3.75121c2.78612,3.50948 3.49662,9.02624 3.49662,9.02624v31.22257z" data-paper-data="{&quot;index&quot;:null}" fill="#7a7a7a" stroke="none" stroke-width="0" stroke-linecap="butt"/><path d="M152.46119,162.77019v-35.19048c0,0 0.49769,18.43704 8.40133,24.88697c11.9333,9.73841 26.78914,10.30351 26.78914,10.30351z" data-paper-data="{&quot;index&quot;:null}" fill="#7a7a7a" stroke="none" stroke-width="0" stroke-linecap="butt"/><path d="M195.12284,165.05176c0,0 11.41178,-3.84175 17.11429,-8.76145c6.00518,-5.18083 6.47808,-13.44811 13.21904,-13.23855c6.5613,0.20398 7.04577,7.35458 13.89767,12.79554c6.87233,5.45718 20.10233,9.20446 20.10233,9.20446z" fill="#7a7a7a" stroke="#7a7a7a" stroke-width="3.5" stroke-linecap="round"/><g fill="none" stroke="#7a7a7a" stroke-width="5" stroke-linecap="round"><path d="M403.95617,103.21843c-13.68256,0.23118 -28.22973,34.21171 -28.22973,34.21171l-41.93694,29.95495"/><path d="M473.95617,167.71842l-41.93694,-29.95495c0,0 -7.21384,-36.31386 -28.22973,-34.54504" data-paper-data="{&quot;index&quot;:null}"/></g></g></g></svg>