<svg version="1.1" xmlns="http://www.w3.org/2000/svg" xmlns:xlink="http://www.w3.org/1999/xlink" width="157.83603" height="139.25511" viewBox="0,0,157.83603,139.25511"><g transform="translate(-160.86812,-110.36989)"><g data-paper-data="{&quot;isPaintingLayer&quot;:true}" fill-rule="nonzero" stroke-width="2.5" stroke-linejoin="miter" stroke-miterlimit="10" stroke-dasharray="" stroke-dashoffset="0" style="mix-blend-mode: normal"><path d="M179.32336,183.375c0,24.94707 0.96554,46.84256 32.08707,58.12825c16.06135,5.82437 39.33553,6.87175 39.33553,6.87175l-88.61475,-0.36041l0.67607,-64.63959z" data-paper-data="{&quot;index&quot;:null}" fill="#00ff40" stroke="#00a229" stroke-linecap="butt"/><path d="M162.8073,181.37501l-0.00606,-69.43394l77.18758,-0.31606l0.02974,11.04673c0,0 -32.45746,1.0024 -48.00152,18.40968c-13.64702,15.28284 -12.69366,25.49986 -12.69366,40.29359z" data-paper-data="{&quot;index&quot;:null}" fill="#1d00ff" stroke="#0009a3" stroke-linecap="butt"/><path d="M300.9319,181.37501c0,-14.79373 0.95336,-25.01075 -12.69366,-40.29359c-15.54406,-17.40728 -48.14111,-18.40968 -48.14111,-18.40968l0.02974,-11.04673l77.32717,0.31606l-0.00606,69.43394z" data-paper-data="{&quot;index&quot;:null}" fill="#1d00ff" stroke="#0009a3" stroke-linecap="butt"/><path d="M249.43386,248.375h67.88661" fill="none" stroke="#000000" stroke-linecap="round"/></g></g></svg>