<svg version="1.1" xmlns="http://www.w3.org/2000/svg" xmlns:xlink="http://www.w3.org/1999/xlink" width="157.70793" height="139.2551" viewBox="0,0,157.70793,139.2551"><g transform="translate(-161.55112,-110.36989)"><g data-paper-data="{&quot;isPaintingLayer&quot;:true}" fill-rule="nonzero" stroke-width="2.5" stroke-linecap="butt" stroke-linejoin="miter" stroke-miterlimit="10" stroke-dasharray="" stroke-dashoffset="0" style="mix-blend-mode: normal"><path d="M317.31989,183.375l0.67607,64.63959l-88.61475,0.36041c0,0 23.27418,-1.04738 39.33553,-6.87175c31.12153,-11.28569 32.33205,-33.18118 32.33205,-58.12825z" data-paper-data="{&quot;index&quot;:null}" fill="#ff0000" stroke="#a30000"/><path d="M162.80729,181.375l-0.00606,-69.43394l77.18758,-0.31606l0.02974,11.04673c0,0 -32.45746,1.0024 -48.00152,18.40968c-13.64702,15.28284 -12.69366,25.49986 -12.69366,40.29359z" data-paper-data="{&quot;index&quot;:null}" fill="#1d00ff" stroke="#0009a3"/><path d="M301.05439,181.375c0,-14.79373 0.83087,-25.01075 -12.81615,-40.29359c-15.54406,-17.40728 -48.14111,-18.40968 -48.14111,-18.40968l0.02974,-11.04673l77.32717,0.31606l-0.00606,69.43394z" data-paper-data="{&quot;index&quot;:null}" fill="#1d00ff" stroke="#0009a3"/></g></g></svg>